<svg width="1015" height="503" viewBox="0 0 1015 503" fill="none" xmlns="http://www.w3.org/2000/svg">
<path d="M448.5 314C540.195 282.859 638.465 235.303 687.038 138.676C694.613 123.608 707.721 84.636 685.657 75.3785C666.294 67.2543 630.938 81.0903 620.496 99.4918C593.318 147.386 572.511 217.667 638.916 239.399C711.208 263.058 807.779 243.947 879.526 223.575C914.327 213.694 955.508 198.798 986.362 178.362C1006.84 164.796 986.852 169.32 971.626 169.32C949.971 169.32 899.968 169.32 947.911 169.32C967.391 169.32 988.686 165.976 1006.16 160.529C1024.85 154.705 996.533 178.688 993.73 183.135C984.894 197.156 974.85 219.828 974.85 237.139" stroke="#004E85" stroke-width="5" stroke-linecap="round"/>
<path d="M2.50056 149.848C57.0231 134.016 109.285 132.516 152.266 165.071C189.609 193.356 214.736 231.652 250 261.738C289.846 295.732 340.938 320.882 393.683 333.581C411.663 337.91 435.45 337.267 451.728 343.67" stroke="#004A80" stroke-width="5" stroke-linecap="round"/>
<path d="M436.47 314.273C446.29 326.38 459.348 338.646 468.785 348.818C473.691 354.107 475.068 352.522 470.48 352.085C455.597 350.665 432.152 353.87 417.661 359.909" stroke="#004A80" stroke-width="5" stroke-linecap="round"/>
</svg>
