<svg xmlns="http://www.w3.org/2000/svg" width="1254" height="1254" viewBox="0 0 1254 1254">
<rect width="100%" height="100%" fill="#FFFFFF"/>
<defs>
  <style>
    .t{font-family: Inter, Arial, Helvetica, sans-serif; fill:#2F3441}
    .muted{font-family: Inter, Arial, Helvetica, sans-serif; fill:#4B5563}
    .blue{font-family: Inter, Arial, Helvetica, sans-serif; fill:#2F80ED; font-weight:700}
    .label{font-family: Inter, Arial, Helvetica, sans-serif; fill:#111827; font-weight:700}
  </style>
</defs>
<line x1="35" y1="72" x2="88" y2="72" stroke="#2F80ED" stroke-width="3"/>
<text x="108" y="78" class="t" font-size="24">Город (пример)</text>
<line x1="35" y1="117" x2="88" y2="117" stroke="#6B7280" stroke-width="3" stroke-dasharray="12 10"/>
<text x="108" y="123" class="t" font-size="24">Среднее по всем городам</text>
<polygon points="627.0,207.0 1047.0,627.0 627.0,1047.0 207.0,627.0" fill="none" stroke="#D9DEE7" stroke-width="1.5" stroke-dasharray="5 5"/>
<polygon points="627.0,277.0 977.0,627.0 627.0,977.0 277.0,627.0" fill="none" stroke="#D9DEE7" stroke-width="1.5"/>
<polygon points="627.0,347.0 907.0,627.0 627.0,907.0 347.0,627.0" fill="none" stroke="#D9DEE7" stroke-width="1.5"/>
<polygon points="627.0,417.0 837.0,627.0 627.0,837.0 417.0,627.0" fill="none" stroke="#D9DEE7" stroke-width="1.5"/>
<polygon points="627.0,487.0 767.0,627.0 627.0,767.0 487.0,627.0" fill="none" stroke="#D9DEE7" stroke-width="1.5"/>
<polygon points="627.0,557.0 697.0,627.0 627.0,697.0 557.0,627.0" fill="none" stroke="#D9DEE7" stroke-width="1.5"/>
<line x1="627" y1="627" x2="627.0" y2="207.0" stroke="#C9CED8" stroke-width="1.5"/>
<line x1="627" y1="627" x2="1047.0" y2="627.0" stroke="#C9CED8" stroke-width="1.5"/>
<line x1="627" y1="627" x2="627.0" y2="1047.0" stroke="#C9CED8" stroke-width="1.5"/>
<line x1="627" y1="627" x2="207.0" y2="627.0" stroke="#C9CED8" stroke-width="1.5"/>
<text x="627" y="635" text-anchor="middle" class="t" font-size="28">0</text>
<text x="627" y="497.0" text-anchor="middle" class="t" font-size="22">1</text>
<text x="627" y="357.0" text-anchor="middle" class="t" font-size="22">2</text>
<text x="627" y="217.0" text-anchor="middle" class="t" font-size="22">3</text>
<polygon points="627.0,319.0 991.0,627.0 627.0,879.0 361.0,627.0" fill="#2F80ED" fill-opacity="0.08" stroke="#2F80ED" stroke-width="3"/>
<polygon points="627.0,431.0 865.0,627.0 627.0,795.0 445.0,627.0" fill="none" stroke="#6B7280" stroke-width="3" stroke-dasharray="12 10"/>
<circle cx="627.0" cy="319.0" r="9" fill="#2F80ED"/>
<text x="627.0" y="297.0" text-anchor="middle" class="blue" font-size="26">2,2</text>
<circle cx="991.0" cy="627.0" r="9" fill="#2F80ED"/>
<text x="1013.0" y="635.0" text-anchor="start" class="blue" font-size="26">2,6</text>
<circle cx="627.0" cy="879.0" r="9" fill="#2F80ED"/>
<text x="627.0" y="921.0" text-anchor="middle" class="blue" font-size="26">1,8</text>
<circle cx="361.0" cy="627.0" r="9" fill="#2F80ED"/>
<text x="339.0" y="635.0" text-anchor="end" class="blue" font-size="26">1,9</text>
<circle cx="627.0" cy="431.0" r="9" fill="#6B7280"/>
<text x="627.0" y="409.0" text-anchor="middle" class="muted" font-size="26">1,4</text>
<circle cx="865.0" cy="627.0" r="9" fill="#6B7280"/>
<text x="887.0" y="635.0" text-anchor="start" class="muted" font-size="26">1,7</text>
<circle cx="627.0" cy="795.0" r="9" fill="#6B7280"/>
<text x="627.0" y="837.0" text-anchor="middle" class="muted" font-size="26">1,2</text>
<circle cx="445.0" cy="627.0" r="9" fill="#6B7280"/>
<text x="423.0" y="635.0" text-anchor="end" class="muted" font-size="26">1,3</text>
<circle cx="627" cy="61" r="28" fill="#EEF4FF" stroke="#C9D7F8" stroke-width="1.5"/>
<text x="627" y="70" text-anchor="middle" fill="#2F80ED" font-size="28">🏢</text>
<text x="627" y="134" text-anchor="middle" class="label" font-size="31">Организация</text>
<text x="627" y="172" text-anchor="middle" class="t" font-size="26">0 — 3</text>
<circle cx="1130" cy="587" r="28" fill="#EEF4FF" stroke="#C9D7F8" stroke-width="1.5"/>
<text x="1130" y="597" text-anchor="middle" fill="#2F80ED" font-size="28">👥</text>
<text x="1055" y="650" class="label" font-size="31">Компетенции</text>
<text x="1107" y="688" class="t" font-size="26">0 — 3</text>
<circle cx="627" cy="1021" r="28" fill="#EEF4FF" stroke="#C9D7F8" stroke-width="1.5"/>
<text x="627" y="1030" text-anchor="middle" fill="#2F80ED" font-size="28">📄</text>
<text x="627" y="1111" text-anchor="middle" class="label" font-size="31">Контент</text>
<text x="627" y="1149" text-anchor="middle" class="t" font-size="26">0 — 3</text>
<circle cx="78" cy="587" r="28" fill="#EEF4FF" stroke="#C9D7F8" stroke-width="1.5"/>
<text x="78" y="597" text-anchor="middle" fill="#2F80ED" font-size="28">⌁</text>
<text x="36" y="650" class="label" font-size="31">Охват</text>
<text x="75" y="688" class="t" font-size="26">0 — 3</text>
</svg>
