<svg width="107" height="86" viewBox="0 0 107 86" fill="none" xmlns="http://www.w3.org/2000/svg">
<path fill-rule="evenodd" clip-rule="evenodd" d="M29.3298 12.9163V13.3133C29.3298 13.4245 29.374 13.5312 29.4526 13.6098C29.5312 13.6885 29.6379 13.7327 29.7491 13.7327C29.8603 13.7327 29.967 13.6885 30.0456 13.6098C30.1243 13.5312 30.1685 13.4245 30.1685 13.3133V12.894C30.1627 12.7837 30.1149 12.6798 30.0347 12.6039C29.9546 12.5279 29.8483 12.4856 29.7379 12.4858C29.6826 12.4865 29.628 12.4983 29.5774 12.5204C29.5267 12.5426 29.481 12.5747 29.4429 12.6148C29.4049 12.655 29.3752 12.7023 29.3558 12.7541C29.3364 12.8059 29.3275 12.8611 29.3298 12.9163ZM29.1676 11.7477C29.7827 11.6024 30.2859 11.1886 29.3913 11.2445C29.1697 11.2754 28.9509 11.324 28.7371 11.3899C27.8984 11.7365 28.6253 11.8763 29.1676 11.7477ZM80.468 15.6393C80.2104 16.1799 79.7793 16.6188 79.2435 16.8862C79.2227 16.8936 79.2051 16.908 79.1938 16.9269C79.1825 16.9458 79.1781 16.9681 79.1814 16.9899C79.1847 17.0118 79.1955 17.0317 79.2119 17.0465C79.2284 17.0612 79.2494 17.0698 79.2714 17.0707C79.4524 17.1025 79.6384 17.0893 79.8131 17.0322C79.9877 16.975 80.1456 16.8757 80.2727 16.7431C80.3999 16.6104 80.4924 16.4485 80.542 16.2715C80.5917 16.0946 80.597 15.9082 80.5574 15.7288C80.5574 15.705 80.548 15.6823 80.5312 15.6655C80.5145 15.6487 80.4917 15.6393 80.468 15.6393ZM78.2426 11.2054C78.1352 11.1779 78.0212 11.1935 77.9251 11.2488C77.829 11.3042 77.7583 11.395 77.7282 11.5017C77.6776 11.6837 77.6681 11.8747 77.7003 12.0608C77.7003 12.1721 77.7445 12.2787 77.8231 12.3574C77.9017 12.436 78.0084 12.4802 78.1196 12.4802C78.2309 12.4802 78.3375 12.436 78.4162 12.3574C78.4948 12.2787 78.539 12.1721 78.539 12.0608C78.539 11.6583 78.6284 11.3116 78.2426 11.2054ZM59.0141 66.1401C58.5612 65.9109 49.9002 66.4756 49.6822 67.4485C49.6374 67.6609 49.7772 68.4773 50.0232 68.6115C50.5097 68.8687 58.8408 68.399 59.2992 67.4932C59.4296 67.2729 59.4726 67.0117 59.4198 66.7612C59.367 66.5107 59.2223 66.2891 59.0141 66.1401ZM50.1295 68.3766C49.9571 68.1057 49.8641 67.7919 49.8611 67.4708C49.9729 66.9676 54.5858 66.6936 55.0946 66.6601C55.0824 67.1119 55.1988 67.5578 55.4301 67.9461C54.7926 68.0467 50.4314 68.5388 50.1295 68.3934V68.3766ZM58.8911 67.2584C58.4494 67.5715 56.2072 67.8566 55.6705 67.9237C55.7175 67.4811 55.6236 67.035 55.4021 66.6489C56.0675 66.6042 58.1978 66.4868 58.8296 66.5427C58.9973 66.6657 59.0029 67.0459 58.8911 67.2695V67.2584ZM44.3201 67.4652C44.305 67.4558 44.2876 67.4508 44.2698 67.4508C44.252 67.4508 44.2345 67.4558 44.2195 67.4652C44.2195 67.4093 33.54 73.4256 33.2157 74.063C33.2013 74.0936 33.1938 74.127 33.1938 74.1609C33.1938 74.1947 33.2013 74.2281 33.2157 74.2587C33.5568 75.2372 44.7003 85.3127 45.1644 85.542C45.2986 85.6091 45.4663 85.4917 45.9919 85.2121C47.1102 84.6138 56.6546 79.5145 57.6386 78.6926C57.9126 78.413 58.0803 75.897 57.9294 75.6118C57.7784 75.3266 44.3201 67.5212 44.3201 67.4652ZM45.2874 85.0779C44.0964 84.133 34.6639 75.6342 33.6183 74.1916C34.5912 73.2746 44.0014 67.8231 44.2866 67.6553C45.7291 68.5332 56.1122 74.8514 57.4429 75.746C56.7396 75.9493 56.0706 76.2564 55.458 76.6574C55.1393 76.9649 55.9333 77.5352 57.0348 78.6031C55.3518 79.6879 47.0039 84.1609 45.2874 85.0779ZM57.3535 78.2844C57.2976 78.2285 55.95 76.9146 55.8885 76.8643C56.4317 76.5252 56.9916 76.2135 57.5659 75.9305C57.5677 76.7205 57.4928 77.5089 57.3423 78.2844H57.3535Z" fill="black"/>
<path fill-rule="evenodd" clip-rule="evenodd" d="M52.707 77.2556C52.3156 77.4234 47.5406 79.0057 46.1931 79.5536C45.7971 79.751 45.3655 79.867 44.9239 79.8947C44.8456 79.8947 45.2985 79.0225 48.726 76.3498C49.0838 76.0703 49.7716 75.5391 49.8442 75.103C50.1741 73.6604 46.2658 75.8187 42.7712 77.1829C42.4098 77.3771 42.0154 77.5022 41.6082 77.552C41.5691 77.3227 42.3575 76.6014 42.4078 76.5455C44.4933 74.2419 47.138 73.2914 46.9591 72.4415C46.6851 71.1108 41.8319 73.6995 40.8087 74.1189C39.9476 74.4823 38.5721 74.9184 38.656 74.9184C38.4715 74.9911 38.656 75.1197 38.6896 75.103C38.7231 75.0862 40.4956 74.5438 40.9261 74.3537C41.5691 74.1077 45.8688 72.0333 46.5845 72.5198C46.8697 72.7211 43.828 74.3593 42.1114 76.2548C41.8095 76.5791 40.9932 77.2388 41.2448 77.7756C41.2909 77.8586 41.3609 77.9258 41.4456 77.9687C41.5303 78.0115 41.6259 78.028 41.7201 78.016C42.5532 78.016 48.2339 75.1701 49.4025 75.0806C49.1343 75.4345 48.8138 75.7456 48.452 76.0032C47.6189 76.6629 45.2034 78.6311 44.6443 79.5369C44.3536 80.0065 44.594 80.2861 44.9742 80.2917C45.4774 80.2917 46.0925 79.9506 47.6077 79.3803C52.7461 77.401 52.9083 77.4905 52.8244 77.3059C52.8201 77.2949 52.8136 77.2847 52.8054 77.2762C52.7971 77.2676 52.7872 77.2608 52.7763 77.2561C52.7653 77.2514 52.7536 77.249 52.7417 77.2489C52.7298 77.2488 52.718 77.2511 52.707 77.2556Z" fill="black"/>
<path fill-rule="evenodd" clip-rule="evenodd" d="M106.233 55.9359C106.16 50.0874 105.634 38.1499 104.477 32.3629C103.868 29.2932 102.548 25.0942 100.093 23.0645C99.0534 22.209 97.5214 21.3871 94.7425 19.8495C94.776 19.7768 90.3533 17.9876 90.1464 18.5803C89.9746 17.5605 89.7337 16.5536 89.4251 15.5665C89.8389 15.4323 89.6544 14.2246 89.8277 13.5425C90.0011 12.8603 90.6552 12.3739 90.9907 11.8148C91.7455 10.5679 91.8741 8.39288 91.7344 6.94473C91.6002 5.59722 89.632 2.58909 88.3348 2.09705C87.0377 1.60501 85.7069 1.62179 84.337 1.34781C83.2188 1.11857 82.3913 0.497932 81.1388 0.341375C79.8864 0.184818 79.1371 0.900507 78.0636 0.900507C76.9901 0.900507 75.7823 0.0673996 74.6585 0.000303713C74.0479 -0.00916947 73.4546 0.203248 72.9888 0.598116C72.523 0.992984 72.2162 1.54347 72.1256 2.14737C71.99 3.04749 72.0967 3.96749 72.4347 4.81266C72.7728 5.65784 73.33 6.39764 74.049 6.95591C74.9244 7.50972 75.9081 7.87002 76.9341 8.01267C76.867 10.8698 77.169 10.1038 76.8335 10.3554C76.498 10.607 76.6042 12.3683 76.7217 12.8548C76.772 13.0504 76.8223 13.1231 77.0627 13.2014C76.9285 13.7605 75.9836 14.9683 76.8335 15.2646C76.9453 15.3037 77.3926 15.382 77.4374 15.3988C77.5519 15.929 77.7206 16.4461 77.9406 16.942C78.1574 17.4405 78.4743 17.8893 78.8715 18.2605C79.2687 18.6317 79.7378 18.9175 80.2498 19.1003C81.0549 19.4134 81.6924 19.4972 82.162 19.6594C82.2267 19.8906 82.2606 20.1294 82.2627 20.3695C80.266 20.8943 78.3848 21.7875 76.7161 23.003C73.6912 25.4576 69.3914 35.6394 68.2676 36.7576C67.8315 37.1882 57.5602 39.1787 56.045 40.2075C55.7486 40.4088 55.7374 40.5821 55.7766 40.94C55.4076 41.007 53.8532 41.2978 53.6798 41.6277C53.6287 41.8673 53.6422 42.1163 53.719 42.349C52.3354 42.0906 50.9395 41.904 49.5367 41.7898C49.2799 41.7958 49.0274 41.8557 48.7952 41.9655C48.5631 42.0753 48.3566 42.2326 48.1892 42.4272C47.7195 42.9864 48.0997 42.8913 47.6021 42.813C46.5453 42.6621 42.76 43.9313 42.2847 44.155C42.2847 43.9537 42.2847 43.8139 42.0723 43.7021C41.4482 43.5212 40.7962 43.4568 40.1488 43.512C39.7574 43.7748 41.2671 43.6853 41.8933 44.0096C41.8933 44.4401 41.9492 48.8573 41.8933 49.7239C41.8933 49.8805 41.8933 49.8581 41.7759 49.8749C41.2168 49.9532 40.4116 49.8749 40.1656 50.0538C40.2551 48.108 40.1656 43.3442 39.8972 43.0647C39.7351 42.8969 36.7493 42.5391 33.5008 42.1477C33.5123 39.7973 33.3816 37.4484 33.1094 35.1138C32.5111 29.925 31.2586 23.8081 27.3447 20.705C27.5715 20.7976 27.8211 20.819 28.0604 20.7665C28.3799 20.6397 28.7239 20.5862 29.0668 20.6099C29.626 20.7609 29.6987 21.169 31.0965 20.2297C31.186 20.1682 31.4208 20.185 31.6053 20.0005C32.2371 19.3686 31.9184 18.5132 31.9184 17.8758C32.011 17.4424 32.0411 16.9981 32.0079 16.5562C31.9907 16.4903 31.9586 16.4293 31.914 16.3779C31.8694 16.3265 31.8135 16.2861 31.7507 16.2599C31.7507 16.0754 31.9464 15.7455 31.6668 15.3876C32.0694 15.1751 32.5055 14.9291 32.2819 14.493C31.8546 13.8097 31.5022 13.0823 31.2307 12.3236C31.0574 11.675 31.2922 10.8475 31.281 10.1486C31.281 9.6677 31.3313 9.09179 31.281 8.56621C31.7123 8.26509 32.0418 7.83999 32.2259 7.3473C32.2667 7.14814 32.258 6.94201 32.2005 6.74702C32.1429 6.55204 32.0384 6.37417 31.896 6.22903C31.7115 6.11162 31.6724 6.22903 31.678 5.88237C31.6982 5.76072 31.6927 5.63618 31.6619 5.51677C31.6311 5.39736 31.5756 5.28573 31.4991 5.18905C31.2642 4.9598 30.7275 4.7082 30.5597 4.47336C30.2746 4.05401 30.1068 3.63466 29.5701 3.46692C29.1898 3.34391 28.832 3.58434 28.5748 3.50047C28.2226 3.38864 27.8591 3.00843 27.4565 3.41101C27.3667 3.45974 27.268 3.49026 27.1663 3.50082C27.0646 3.51137 26.9618 3.50175 26.8639 3.47251C26.5284 3.18736 26.4445 2.69532 25.8742 2.58909C25.5499 2.53317 24.9125 2.68973 24.6665 2.58909C24.2634 2.29242 23.8188 2.05691 23.3469 1.89017C22.8194 1.83993 22.2871 1.88539 21.7758 2.02436C21.4179 2.09705 20.9594 2.05791 20.5848 2.11382C19.8076 2.23683 19.584 2.90779 19.0696 3.23209C18.5552 3.55638 17.6885 3.56197 17.1965 4.28885C16.7827 4.90389 16.8722 5.56926 16.71 6.18431C16.6429 6.4471 16.2851 6.74344 16.1509 7.01182C15.8378 7.63246 16.0782 8.25868 16.0726 8.79545C16.067 9.33222 15.6924 9.82425 15.7986 10.4728C15.8849 10.7968 16.0268 11.1033 16.218 11.3786C16.2203 11.4693 16.209 11.5597 16.1844 11.647C16.0139 12.087 15.9788 12.568 16.0838 13.0281C16.1753 13.4692 16.3883 13.8759 16.6988 14.2023C17.0902 14.5433 17.2915 14.4539 17.5767 14.9403C17.6966 15.1975 17.8769 15.422 18.1023 15.5945C18.516 15.8741 19.0248 15.6336 19.2708 15.7566C19.4239 15.8375 19.5908 15.8887 19.7629 15.9076C19.6252 15.9772 19.5063 16.0788 19.4162 16.204C16.3745 16.5898 12.36 18.8095 9.91098 21.8456C8.94368 23.0925 7.3166 24.8929 6.70715 26.3354C3.43064 33.7383 5.02975 45.3459 3.7102 48.93L0.444872 57.4455C0.288315 57.8537 -0.114261 59.8833 0.0311138 60.5823C0.265949 61.6222 1.35626 60.3195 2.02162 59.5814C1.60787 61.0519 1.61346 61.4377 1.3954 67.2248C1.3283 69.0363 1.2668 71.0101 1.23884 72.6707C1.23724 72.6826 1.23821 72.6947 1.2417 72.7062C1.24519 72.7177 1.25112 72.7283 1.25907 72.7374C1.26702 72.7464 1.27682 72.7536 1.2878 72.7585C1.29878 72.7634 1.31069 72.7658 1.32271 72.7657C1.47927 72.7657 1.37862 72.9447 1.60787 68.3262C1.77001 65.0777 1.95453 62.0472 1.9713 61.8012C2.05407 60.8455 2.26469 59.9052 2.59753 59.0055C4.15901 57.8389 5.91613 56.9604 7.78628 56.4111C9.86763 55.8543 12.0655 55.9106 14.1157 56.5733C14.6748 56.7578 16.1788 57.1324 16.7156 56.8808C17.8339 56.3217 20.7134 54.4709 21.1887 53.3471C21.4235 52.788 21.6136 52.3351 21.7981 51.9157C22.6536 51.994 23.7048 52.2121 24.6385 52.2232C25.6841 52.2232 26.3551 52.0555 27.5125 51.0323C31.7674 51.1273 36.4586 50.9987 38.6951 50.9149C40.188 51.474 44.7729 53.1123 45.8855 54.2137C46.3217 54.6387 46.5789 55.824 46.7354 57.1436C46.9416 58.7208 46.9959 60.3142 46.8976 61.9018C43.8335 62.4889 39.9308 63.4171 36.9115 64.1663C36.7424 64.1192 36.5657 64.1059 36.3915 64.1272C35.5919 64.211 35.9665 64.5353 35.7037 63.7246C35.7163 63.7275 35.7294 63.7273 35.7419 63.724C35.7544 63.7206 35.7659 63.7142 35.7753 63.7054C35.7847 63.6965 35.7918 63.6855 35.7959 63.6732C35.8 63.661 35.801 63.6479 35.7988 63.6351C35.7906 62.5604 35.6649 61.4899 35.4242 60.4425C35.385 60.2859 35.1111 60.2076 34.9433 60.1573C33.1317 59.6317 26.137 58.9272 24.5994 59.3242C23.5985 59.587 16.6709 63.1655 16.3578 63.9259C16.0447 64.6863 15.1948 69.26 15.0382 70.1043C11.415 71.161 8.55788 72.0333 7.16005 72.5085C7.14846 72.5123 7.13776 72.5184 7.12861 72.5264C7.11945 72.5344 7.11203 72.5442 7.10679 72.5552C7.10156 72.5662 7.09862 72.5781 7.09817 72.5903C7.09771 72.6025 7.09974 72.6146 7.10413 72.626C7.17123 72.8328 9.00518 71.8823 27.792 66.9452C27.9808 67.4272 28.2227 67.8867 28.5133 68.3151C27.9542 68.4492 27.3223 68.6953 27.1378 69.2097C27.105 69.3183 27.0996 69.4333 27.122 69.5445C27.1445 69.6557 27.1941 69.7597 27.2664 69.8471C27.7251 70.3607 28.3366 70.7135 29.0109 70.8535C30.1932 71.1499 31.4217 71.2144 32.6285 71.0436C33.7873 70.9425 34.9292 70.6984 36.028 70.3168C37.2246 69.8135 37.1463 69.0643 36.6878 68.7232C36.2153 68.4453 35.6962 68.2559 35.1558 68.1641C35.6646 67.2415 35.1893 67.6497 35.9498 67.4652C36.3801 67.3625 36.7732 67.1417 37.0848 66.8278C37.5768 66.3245 37.9067 65.0833 37.437 64.485C39.7966 63.9259 49.2851 61.5775 51.6055 61.7508C55.8157 62.0584 86.4282 74.6444 93.6745 77.0711C93.6859 77.0747 93.6979 77.0761 93.7098 77.0752C93.7218 77.0742 93.7334 77.0709 93.744 77.0654C93.7547 77.06 93.7641 77.0525 93.7719 77.0434C93.7796 77.0343 93.7855 77.0237 93.7892 77.0124C93.7928 77.001 93.7942 76.989 93.7933 76.9771C93.7923 76.9651 93.789 76.9535 93.7836 76.9429C93.7781 76.9322 93.7706 76.9228 93.7615 76.915C93.7524 76.9073 93.7418 76.9014 93.7305 76.8977C91.835 76.238 87.608 74.555 82.5478 72.5309C82.7938 71.9382 83.4424 70.026 83.9457 69.3662C84.1525 69.0978 84.1413 69.0755 85.9865 69.1817C90.823 69.4613 95.0836 69.3327 99.7244 67.851C102.559 66.9396 103.951 64.8373 104.757 62.0248C104.919 62.0751 105.36 62.2205 105.517 62.2541C105.562 62.2649 105.608 62.2649 105.653 62.2542C105.698 62.2436 105.739 62.2224 105.774 62.1926C106.328 61.6278 106.233 57.0374 106.233 55.9359ZM29.7546 17.49C29.6032 17.5451 29.4399 17.5586 29.2815 17.5291C29.1232 17.4996 28.9757 17.4281 28.8544 17.3222C28.7337 17.2256 28.6392 17.1002 28.5796 16.9576C28.52 16.815 28.4972 16.6596 28.5133 16.5059C28.5059 16.4829 28.5079 16.4579 28.5189 16.4364C28.5299 16.4149 28.549 16.3987 28.572 16.3913C28.595 16.3838 28.62 16.3859 28.6415 16.3969C28.663 16.4079 28.6792 16.427 28.6866 16.45C28.9627 16.847 29.3526 17.1511 29.8049 17.3222C29.8193 17.3341 29.8299 17.35 29.8353 17.3679C29.8407 17.3858 29.8407 17.4049 29.8354 17.4228C29.83 17.4407 29.8195 17.4566 29.8051 17.4685C29.7907 17.4805 29.7732 17.4879 29.7546 17.49ZM24.5043 12.592C24.5234 12.4277 24.5894 12.2724 24.6944 12.1447C24.8174 12.0216 25.1921 12.0999 25.4548 11.921C25.6514 11.7657 25.8005 11.5584 25.8854 11.3227C26.1985 10.7021 26.6961 11.1829 27.3894 10.1597C27.5664 9.87199 27.7037 9.56166 27.7976 9.23717C28.189 9.05265 28.6978 9.32104 29.1898 8.51029C29.352 8.23632 29.4582 7.95116 29.749 7.87288C29.967 8.10772 30.1851 8.99115 31.0685 8.65008C31.0685 8.95201 31.0014 10.4784 30.9847 10.6014C30.9122 10.9699 30.8729 11.3442 30.8672 11.7197C30.8672 12.838 31.3816 13.453 31.952 14.6216C32.0414 14.8061 31.5718 14.985 31.3369 15.1136C31.0056 14.9916 30.6628 14.9036 30.3137 14.8509C29.229 14.5881 28.3623 15.1528 27.4286 15.41C27.2703 15.411 27.1125 15.3922 26.9589 15.3541C26.6067 15.3205 26.2376 15.6784 25.74 15.7455C25.6103 15.7709 25.4759 15.7568 25.3542 15.705C25.2326 15.6531 25.1293 15.5659 25.0579 15.4547C24.9976 15.2499 24.9546 15.0405 24.9293 14.8285C24.8789 14.6272 24.8174 14.4259 24.7727 14.2302C24.6832 13.8276 24.946 13.6711 24.6385 13.112C24.426 12.7317 24.4316 12.8995 24.5043 12.592ZM24.7168 23.9983C25.0933 23.2838 25.4003 22.5348 25.6338 21.7617C25.9469 23.7075 26.1146 24.6916 26.1929 25.1836C25.7847 24.8425 25.7456 24.7139 24.7168 23.9759V23.9983ZM26.3942 26.2739C26.6682 27.9513 26.6067 27.5711 26.657 27.9178C26.5234 27.6662 26.3601 27.4315 26.1705 27.2189C26.2331 26.8495 26.2612 26.4751 26.2544 26.1006L26.3942 26.2739ZM24.3701 27.2804C24.0362 26.9332 23.7314 26.5592 23.4587 26.1621C23.7352 25.5155 24.0469 24.8846 24.3925 24.2722C25.5667 25.1724 25.4772 25.1612 25.768 25.5247C25.8106 26.0009 25.8106 26.4799 25.768 26.9561L24.3701 27.2804ZM24.4428 27.6438C25.1082 29.1255 25.3766 31.5577 25.5164 33.1792C24.8184 31.1369 23.8799 29.1848 22.7207 27.3642C22.9474 27.0544 23.1493 26.7273 23.3246 26.3857C23.5548 26.8146 23.8304 27.2176 24.1465 27.5879C24.1869 27.6133 24.2324 27.6295 24.2797 27.6353C24.3271 27.6411 24.3751 27.6363 24.4205 27.6214L24.4428 27.6438ZM21.1216 15.6784C21.1671 15.6925 21.2139 15.7019 21.2614 15.7063C21.3916 15.7005 21.5164 15.6527 21.6171 15.57C21.7179 15.4874 21.7892 15.3744 21.8205 15.2478C21.91 15.1919 21.977 15.1304 21.9715 15.0242C21.9659 14.9179 20.7637 13.2741 22.2958 12.4298C22.4309 12.4152 22.5667 12.4502 22.6778 12.5284C22.7889 12.6066 22.8678 12.7226 22.8996 12.8548C22.972 13.153 23.1247 13.4257 23.3413 13.6431C23.3583 14.0005 23.405 14.3559 23.4811 14.7055C23.5258 14.9124 23.3693 15.1807 23.3357 15.4659C23.2575 16.025 23.7998 16.6401 23.9955 17.1433C24.2583 17.8198 24.0794 18.5467 24.7056 19.145C25.3318 19.7433 25.2144 19.2512 25.4325 20.5931C25.1716 21.6477 24.8122 22.6755 24.3589 23.6628C23.7271 22.7682 20.5289 17.5459 19.8859 16.3549C20.1263 16.2095 20.8756 15.7846 21.0992 15.656L21.1216 15.6784ZM19.4442 16.422C19.8523 17.3725 23.9172 23.8137 23.9172 23.8696C23.7215 24.4903 22.5977 27.0623 22.0665 27.3419C20.8979 26.5088 17.6941 17.7472 17.4649 16.9532C18.0957 16.683 18.7593 16.4968 19.4386 16.3996L19.4442 16.422ZM25.2144 41.1077C24.5994 40.912 22.6145 34.1745 20.842 30.445C19.7797 28.2085 17.6941 24.5126 15.4184 23.5286C12.9582 22.4718 8.38455 25.0047 7.8981 28.2924C7.60107 30.4606 7.77655 32.6675 8.4125 34.7615C11.0516 42.7404 14.6245 49.1033 22.2566 50.926C22.4355 50.5682 21.8037 50.8645 26.8247 50.9987C26.5786 51.1902 26.3168 51.3604 26.0419 51.5075C25.1026 52.0164 23.319 51.6082 21.9994 51.4628L22.1672 51.0994C14.3058 49.3437 10.6267 42.7124 7.99315 34.8846C7.32805 32.7274 7.13732 30.4519 7.43402 28.2141C7.93724 24.658 12.6731 22.1084 15.2954 22.9918C15.964 23.2409 16.5762 23.6211 17.0958 24.1101C16.8465 21.8696 16.7847 19.6121 16.9113 17.3614C17.0141 17.2701 17.1244 17.1878 17.2412 17.1153C17.7221 18.7927 20.4618 26.8107 21.854 27.6997C21.9423 27.7519 22.0457 27.7726 22.1473 27.7584C22.2489 27.7441 22.3426 27.6959 22.4132 27.6214C23.6712 29.7853 24.8454 31.9994 25.3151 34.331C25.5808 35.6178 25.6486 36.9376 25.5164 38.2449C24.7224 34.9572 22.525 30.2046 20.0257 27.9289C22.5809 32.3405 24.4428 39.3967 25.2759 40.789C25.6092 40.8808 25.9496 40.9444 26.2935 40.9791C26.1482 37.6243 26.0363 30.6296 24.6161 27.5935C24.7895 27.5935 26.014 27.3307 26.014 27.3307C26.2348 27.5958 26.4226 27.8868 26.5731 28.1973C26.8024 28.639 26.7241 28.3036 27.0707 30.6519C28.7481 41.4935 28.6531 41.4376 28.8711 41.555C27.7752 41.4152 25.8462 41.2978 25.2144 41.1077ZM28.9271 38.8712C26.7464 26.492 26.7241 26.1453 25.8071 20.9789C25.8798 20.7329 25.9357 20.5316 25.9748 20.3863C26.3215 20.828 28.2114 23.249 28.4182 23.7802C28.1107 24.0542 27.0036 24.5238 27.3391 24.8985C27.4901 25.0718 28.737 26.1509 29.1283 26.5423C29.3408 27.4425 29.0053 37.3056 28.9271 38.8712ZM15.2619 70.0316C15.4184 69.3215 16.4416 64.7031 16.7268 64.0545C16.9337 63.5736 23.6768 59.9952 24.7392 59.7268C26.2712 59.3242 34.6134 60.1517 35.1949 60.5263C35.4574 61.5016 35.6112 62.503 35.6534 63.5121C34.7141 62.3939 27.4454 62.6902 27.3671 64.2669C27.3655 64.3187 27.3764 64.3701 27.3988 64.4168C27.4211 64.4634 27.4544 64.5041 27.4957 64.5353C27.492 65.2112 27.569 65.885 27.7249 66.5426C23.4308 67.7 19.1367 68.9077 15.2619 70.0316ZM36.5816 69.1593C36.8667 70.0819 33.5175 70.4789 32.5502 70.5907C31.4017 70.7543 30.2323 70.6955 29.106 70.4174C28.6139 70.2832 27.7026 69.9254 27.5292 69.4781C27.4454 69.2656 27.7193 69.0643 27.9206 68.9581C28.1756 68.8249 28.446 68.7235 28.7258 68.6561C29.0304 69.0759 29.4388 69.4092 29.9111 69.6234C30.4703 69.8694 32.8578 69.6961 33.6853 69.5172C34.0487 69.4389 34.4345 69.3327 34.9825 68.4548C35.3179 68.5052 36.4865 68.8518 36.5816 69.1593ZM33.9089 68.9637C33.4896 69.2153 30.5262 69.4165 30.0733 69.232C28.5748 68.6338 27.7585 66.2966 27.697 64.6472C28.9151 64.9151 30.1653 65.0074 31.4096 64.9211C32.3434 64.7981 34.5519 64.4179 35.3627 64.0097C35.8491 65.8437 34.8203 68.4325 33.9089 68.9637ZM37.0345 66.0785C36.8831 66.3779 36.6705 66.6422 36.4104 66.8541C36.1503 67.066 35.8486 67.2209 35.5248 67.3086C35.8173 66.5243 35.9559 65.6909 35.933 64.854C35.9771 64.7616 36.0412 64.6801 36.1206 64.6153C36.2 64.5506 36.2928 64.5043 36.3922 64.4797C36.4916 64.4551 36.5953 64.4529 36.6957 64.4731C36.7961 64.4934 36.8908 64.5356 36.973 64.5968C37.3923 64.8708 37.2078 65.6033 37.0345 66.0785ZM94.6251 20.0116C98.4048 22.0972 100.082 22.9694 101.29 24.7978C100.53 24.1445 99.5633 23.7819 98.5614 23.7746C94.9773 23.6516 93.2161 28.9578 92.2991 32.3908C90.7782 38.1163 91.712 45.3627 91.6281 46.425C90.6608 47.3252 85.7069 49.8973 83.4928 51.0994C83.8003 49.8022 84.8962 44.798 85.6119 42.8242C86.5736 40.1739 89.3413 34.0011 89.5258 32.6592C89.5761 32.2622 89.4978 32.2119 88.3237 31.4515C88.7766 31.4515 90.0011 31.3285 90.3813 31.2558C90.5434 31.2558 90.6273 31.1831 90.6888 30.842C90.8957 29.6567 91.2982 19.8886 91.3318 18.8486C91.2926 18.8263 94.1442 19.7377 94.6419 20.0116H94.6251ZM90.3142 18.6753C90.5688 18.657 90.8246 18.6854 91.069 18.7592C90.7894 22.8129 90.5099 29.9418 90.2471 30.8532C89.9507 30.9091 88.8996 30.9818 88.4914 31.0098C87.6192 31.0601 87.5968 31.0098 87.5073 31.1328C87.4179 31.2558 87.5409 31.4235 87.703 31.5353C87.9882 31.7366 88.9387 32.3349 89.0729 32.4915C88.9438 33.1572 88.7452 33.8075 88.4802 34.4317C85.3211 42.8186 85.5112 40.241 83.3865 49.4388C83.5285 45.0328 83.9355 40.6394 84.6054 36.2824C85.0527 33.8837 85.5951 31.6304 87.4011 26.4976C88.1112 24.5127 89.5817 20.7106 89.6376 20.7329C89.9181 20.0647 90.1498 19.377 90.3309 18.6753H90.3142ZM80.602 52.9893C80.7083 53.403 80.7083 53.3471 80.6747 53.3527L80.5014 53.3191C80.5014 53.2632 80.1995 47.6495 80.3448 45.3291C80.6076 41.2195 80.9431 36.7632 81.2562 32.4691C81.4072 30.3891 81.9775 25.9217 81.9607 26.0894L82.5199 25.6756C82.7519 26.1385 83.0153 26.585 83.3082 27.012C83.4201 27.1629 83.571 27.353 83.75 27.3698C83.6269 28.3818 81.765 40.8673 81.2171 48.8461C80.9152 53.1905 81.2171 52.268 80.7754 52.665C80.7229 52.7003 80.6808 52.749 80.6533 52.806C80.6258 52.8629 80.6139 52.9262 80.6188 52.9893H80.602ZM83.9233 27.3754C84.3482 27.3754 84.8067 26.4808 85.3658 26.1006C85.5839 26.3298 86.2437 27.4257 86.6798 27.5711C84.8291 32.648 82.8498 39.7266 82.8553 51.4125C82.3801 51.6697 81.7371 52.0387 81.2618 52.3127C81.5414 47.5545 83.5654 31.9379 83.9401 27.3754H83.9233ZM89.7942 19.8607C89.6153 20.4198 86.9594 26.833 86.7749 27.1294C86.4866 26.8467 86.2297 26.5336 86.0089 26.1956C85.5392 25.5638 85.377 25.3569 84.5775 26.2571C85.7628 24.0206 88.0776 21.7505 89.0505 20.6211C89.9787 19.5587 89.8557 19.6482 89.7942 19.8607ZM77.2696 8.1189C77.6868 8.24737 78.1329 8.24737 78.55 8.1189C78.8692 7.97707 79.2215 7.92674 79.5676 7.97353C80.0563 8.19877 80.5586 8.39299 81.0717 8.55502C81.7063 8.54944 82.3397 8.49899 82.9672 8.40406C83.2547 8.53841 83.4982 8.75158 83.6694 9.0188C83.8407 9.28603 83.9326 9.59635 83.9345 9.91371C82.8924 10.065 81.8865 10.4041 80.9655 10.9146C80.9089 10.731 80.7968 10.5695 80.6446 10.4523C80.4924 10.3351 80.3075 10.2681 80.1156 10.2604C79.1988 10.1501 78.2727 10.1388 77.3535 10.2268C77.2719 9.51237 77.2439 8.79281 77.2696 8.07417V8.1189ZM77.0516 12.8883C76.9118 12.6423 76.6378 10.7356 76.9174 10.5288C76.9621 10.5847 76.7664 10.4113 77.8287 10.4225C78.5775 10.4462 79.3243 10.5134 80.0653 10.6238C80.5685 10.7133 80.6524 10.9425 80.6244 11.429C80.6244 12.3292 80.6524 12.2397 80.6244 12.5193C80.6244 12.5975 80.5909 12.8044 80.5294 12.8492C79.3793 13.0573 78.201 13.0554 77.0516 12.8436V12.8883ZM82.19 19.1897C80.658 18.7536 79.2545 18.6977 78.3096 16.7519C77.7001 15.4994 78.0356 15.136 77.4821 14.9739C77.2768 14.9494 77.0745 14.9044 76.8782 14.8397C76.8782 14.4651 77.3479 13.6823 77.4374 13.2853C78.3659 13.3963 79.3044 13.3963 80.233 13.2853C80.7921 13.2014 81.0885 13.1064 80.999 11.9713V11.1047C81.8769 10.8363 83.7388 10.3946 83.9624 10.3331C83.9638 10.6372 84.0051 10.9399 84.0854 11.2333C84.1728 11.4177 84.3236 11.5646 84.5104 11.647C84.5402 11.6603 84.5728 11.6665 84.6054 11.6652C84.6381 11.6638 84.67 11.6549 84.6987 11.6393C84.7273 11.6236 84.752 11.6015 84.7707 11.5747C84.7895 11.5479 84.8018 11.5172 84.8067 11.4849C84.9353 10.9649 85.036 10.5008 85.0751 10.2772C85.0751 10.4002 85.1254 9.88576 85.4945 9.68447C86.0536 9.39372 86.9202 10.0423 86.9817 10.9593C87.0153 11.4066 86.568 12.2173 86.2325 13.1511C86.0312 13.7102 87.2501 13.9506 87.6751 14.1575C87.8316 14.521 87.7366 14.9291 87.949 15.1472C88.268 15.3438 88.6176 15.4855 88.9834 15.5665C89.3691 16.8024 89.6497 18.0687 89.8221 19.3519C88.4019 20.8447 88.0832 21.2026 87.703 21.5884C86.2177 22.9998 84.958 24.631 83.968 26.4249C83.571 24.0933 82.8162 22.0357 82.7323 21.3591C82.6652 20.8336 82.7771 19.9054 82.5311 19.4078C82.4938 19.3486 82.4439 19.2983 82.3849 19.2606C82.3259 19.2229 82.2594 19.1987 82.19 19.1897ZM82.3521 21.0852C82.6205 22.0804 83.3362 25.3122 83.5431 26.6094C83.202 26.095 82.7827 25.2451 82.7827 25.2451C82.7681 25.2148 82.7469 25.1881 82.7207 25.1671C82.6944 25.1461 82.6638 25.1313 82.631 25.1238C82.5982 25.1162 82.5642 25.1162 82.5314 25.1237C82.4986 25.1311 82.4679 25.1459 82.4416 25.1668L82.0334 25.48C82.19 24.0262 82.3465 22.5445 82.3689 21.0852H82.3521ZM82.19 20.5875C82.1397 24.7028 81.3177 28.3707 80.9823 32.4691C79.864 46.2461 79.864 45.5696 79.9758 50.4452C79.3719 46.0392 78.5277 37.4677 78.0636 32.8214C78.3935 32.5697 79.987 31.3564 80.1659 30.9874C80.2498 30.8085 80.1659 30.624 79.7633 30.624C79.0636 30.6767 78.3608 30.6767 77.661 30.624C78.0859 28.8907 80.5182 22.5669 81.1668 20.8895C81.4967 20.7944 81.7706 20.6994 82.19 20.5875ZM56.1959 40.6268C57.0626 39.7155 67.9377 37.5908 68.5304 37.0148C69.3635 36.1761 71.6559 30.9706 73.9931 27.0232C75.978 23.6684 77.0571 22.4271 80.9207 21.0013C79.9926 23.2993 78.181 27.7948 77.3647 30.4115C77.3143 30.5736 77.2417 30.7526 77.3647 30.8588C77.6722 31.1607 78.9582 30.9818 79.6962 30.993C79.1763 31.513 77.7449 32.5697 77.7449 32.5697C77.7173 32.5901 77.6956 32.6173 77.6818 32.6487C77.6681 32.6801 77.6628 32.7146 77.6666 32.7487C77.9014 35.343 79.344 50.8254 79.9702 53.0731L78.9638 52.8159C78.3132 52.4965 77.6068 52.3066 76.8838 52.2568C78.1586 45.9162 77.7001 44.1438 77.8567 40.6883C77.8567 40.3305 76.347 33.1401 76.3359 33.0841C76.3359 33.0604 76.3264 33.0377 76.3097 33.0209C76.2929 33.0041 76.2701 32.9947 76.2464 32.9947C76.2227 32.9947 76.1999 33.0041 76.1832 33.0209C76.1664 33.0377 76.1569 33.0604 76.1569 33.0841C76.252 35.5331 76.9453 37.8647 77.4206 40.5374C75.6314 42.2148 73.7583 44.5352 70.711 45.29C68.8267 45.7653 60.0036 47.6887 58.8294 47.7725C57.8677 46.699 56.045 41.3425 56.1959 40.6268ZM55.1336 41.3705C55.1336 41.3705 55.8045 41.2083 55.7934 41.1021C56.3155 43.0668 56.9731 44.993 57.7615 46.8668C57.2532 47.024 56.7335 47.1418 56.2071 47.219C55.8884 47.219 56.1121 47.4986 55.3349 45.6534C54.8559 44.5064 54.4452 43.332 54.1048 42.1365C54.0097 41.7507 53.8476 41.7898 55.1336 41.3705ZM48.5861 42.5503C49.0279 42.0638 49.3466 41.9911 53.7637 42.5503C54.1565 43.8835 54.6327 45.1907 55.1895 46.4642C54.2805 47.1728 53.2386 47.6918 52.1254 47.9906C52.0919 47.7502 52.0136 47.8229 52.2037 47.8396C52.3643 47.8442 52.5238 47.8126 52.6706 47.7473C52.8173 47.682 52.9475 47.5846 53.0516 47.4622C53.1557 47.3399 53.231 47.1958 53.272 47.0404C53.313 46.8851 53.3186 46.7226 53.2884 46.5648C53.2437 46.0057 51.6446 44.8427 51.1917 44.524C51.4605 44.5793 51.7395 44.558 51.9968 44.4625C52.0198 44.4551 52.0389 44.4388 52.0499 44.4173C52.0609 44.3958 52.063 44.3708 52.0556 44.3479C52.0481 44.3249 52.0319 44.3058 52.0104 44.2948C51.9889 44.2838 51.9639 44.2817 51.9409 44.2892C51.0016 44.5352 50.0511 43.4169 49.9281 43.3834C49.4975 43.2771 49.7659 44.278 48.8098 44.8762C48.67 44.9657 48.1332 44.7644 48.0997 44.4904C48.0293 44.1513 48.0365 43.8006 48.1208 43.4646C48.205 43.1287 48.3641 42.8161 48.5861 42.5503ZM42.335 44.3115C43.0507 44.0543 46.6963 42.9249 47.7474 43.1933C47.6291 43.6399 47.6025 44.1059 47.6692 44.5631C47.7047 44.7084 47.7711 44.8442 47.8639 44.9615C47.9567 45.0787 48.0737 45.1746 48.2069 45.2425C48.3401 45.3104 48.4864 45.3488 48.6358 45.3551C48.7852 45.3614 48.9342 45.3354 49.0726 45.2788C49.4622 45.019 49.7551 44.6376 49.9057 44.1941C50.4033 44.496 52.8747 46.1343 52.8411 46.7158C52.8411 47.1072 52.6343 47.4371 52.2429 47.4035C51.9124 47.2851 51.6001 47.1214 51.3147 46.9171C51.0275 46.6877 50.7249 46.4785 50.4089 46.2908C50.3587 46.2648 50.3006 46.2582 50.2458 46.2724C50.191 46.2866 50.1434 46.3206 50.1121 46.3678C50.0809 46.415 50.0682 46.4721 50.0765 46.5281C50.0849 46.5841 50.1137 46.635 50.1573 46.6711C50.1573 46.6711 50.5766 46.9842 51.0407 47.2861C51.7396 47.8452 51.9801 48.3596 51.1134 48.6224C50.9777 48.6627 50.8352 48.6746 50.6948 48.6572C50.5543 48.6399 50.4189 48.5938 50.2971 48.5218C50.1546 48.2404 49.9656 47.9852 49.7379 47.767C49.6364 47.5057 49.4543 47.2836 49.2181 47.1329C48.9818 46.9821 48.7037 46.9104 48.424 46.9283C48.1332 46.9618 48.1109 47.1072 48.1388 46.973C48.273 46.3076 47.4231 45.905 46.8305 46.0169C45.8743 46.207 45.3432 47.4706 45.0301 48.3932C44.84 48.7958 45.5892 48.3485 42.3183 49.5114C42.4104 47.8875 42.4104 46.2597 42.3183 44.6358C42.2903 44.25 42.2791 44.3395 42.335 44.3115ZM45.1866 48.4547C45.4941 47.7949 46.1707 46.5592 46.892 46.4474C47.1715 46.3971 47.7363 46.5872 47.6748 46.8723C47.5537 47.6295 47.2045 48.3317 46.6739 48.8852C46.741 48.997 44.9909 49.0306 45.1866 48.4547ZM48.3513 47.3867C48.4855 47.2526 49.2683 47.5265 49.2906 47.9459C49.3298 48.6448 48.6644 49.4779 48.0885 49.8637C47.904 49.9923 47.1771 49.3996 47.0094 49.1592C47.4088 48.5336 47.8575 47.9409 48.3513 47.3867ZM49.2962 49.2487C49.3354 49.1927 49.8945 47.9515 49.9896 48.9803C50.0287 49.3828 49.4304 49.5953 49.039 49.5394C49.13 49.4472 49.2159 49.3502 49.2962 49.2487ZM61.7313 56.5174C59.3774 58.3457 59.0419 60.75 59.4277 63.6183C55.648 62.2764 52.7629 61.3818 51.639 61.2868C50.1179 61.3181 48.604 61.5055 47.1212 61.8459C47.2722 60.3418 47.2051 55.0636 46.1371 53.9789C45.0692 52.8942 41.1944 51.4125 39.7351 50.8534H40.065C40.1936 50.7863 39.9811 50.1992 40.4675 50.1656C41.0546 50.1321 41.8766 50.3557 42.1449 50.1209C42.2251 49.9992 42.2714 49.8583 42.2791 49.7127C42.8942 49.517 44.3423 49.0753 45.0748 48.8852C45.321 49.0807 45.6093 49.2162 45.9169 49.2813C46.2245 49.3463 46.543 49.3389 46.8472 49.2598C47.015 49.6345 47.7978 50.4564 48.2842 50.188C48.4191 50.1101 48.5481 50.0222 48.67 49.9252C49.0237 50.0232 49.3992 50.0076 49.7435 49.8805C49.9257 49.8308 50.0883 49.7265 50.2093 49.5815C50.3303 49.4365 50.4038 49.2579 50.4201 49.0697C50.7128 49.1538 51.025 49.1404 51.3094 49.0314C51.5939 48.9225 51.8352 48.724 51.9968 48.4659C53.2227 48.1904 54.3699 47.6397 55.3516 46.8556C55.4579 47.0848 55.5585 47.2805 55.6424 47.4147C55.6702 47.4619 55.7092 47.5014 55.7561 47.5297C55.8029 47.558 55.8561 47.5742 55.9108 47.5769C56.4699 47.6328 57.7895 47.0177 57.8454 47.0177C58.0369 47.4173 58.2753 47.7927 58.5555 48.136C58.6561 48.2366 58.8238 48.2087 58.9804 48.1919C60.6019 47.9962 68.6534 46.2629 70.806 45.7261C73.6017 45.0272 75.4245 43.0647 77.3423 41.1972C77.2361 44.4066 77.6554 45.9721 76.3862 52.2736C73.747 52.6017 71.1321 53.1023 68.5583 53.772C66.305 54.415 63.6212 55.0524 61.7313 56.523V56.5174ZM69.8891 67.549L69.6934 67.4708C69.6486 64.6304 70.3532 62.0136 72.4331 60.0735C72.6171 60.1203 72.8039 60.1558 72.9923 60.1797C70.8508 62.0136 70.0065 64.6863 69.8891 67.549ZM78.7178 58.2283C77.0404 59.2124 77.5324 59.7436 75.9948 59.9057C74.7629 59.9903 73.5253 59.8943 72.3213 59.6206C71.3484 59.3074 71.8628 58.9328 72.8804 58.821C73.0538 58.8489 74.418 58.8601 75.061 58.821C75.1136 58.8126 75.1614 58.7858 75.1959 58.7453C75.2305 58.7048 75.2495 58.6533 75.2495 58.6001C75.2495 58.5469 75.2305 58.4955 75.1959 58.455C75.1614 58.4145 75.1136 58.3877 75.061 58.3793C74.3359 58.3169 73.6072 58.3056 72.8804 58.3457C72.4176 58.339 71.9567 58.2847 71.505 58.1836C71.46 58.1103 71.4339 58.027 71.429 57.9411C71.4241 57.8552 71.4406 57.7695 71.477 57.6916C72.0641 57.3393 74.8318 57.4735 75.2903 57.4567C75.3442 57.4482 75.3934 57.4207 75.4289 57.3792C75.4643 57.3377 75.4838 57.2849 75.4838 57.2303C75.4838 57.1757 75.4643 57.1228 75.4289 57.0813C75.3934 57.0398 75.3442 57.0123 75.2903 57.0038C74.3728 57.0232 73.4552 56.9746 72.545 56.8584C72.1536 56.7913 71.2422 56.5956 71.3093 56.1987C71.4323 55.483 72.9028 56.098 73.9372 56.0253C74.667 56.0144 75.3894 55.8782 76.0731 55.6228C76.1242 55.6072 76.1671 55.5719 76.1923 55.5247C76.2174 55.4776 76.2228 55.4223 76.2073 55.3712C76.1917 55.32 76.1564 55.2771 76.1093 55.2519C76.0621 55.2268 76.0068 55.2214 75.9557 55.237C75.256 55.4051 74.5463 55.5284 73.831 55.606C73.7856 55.5966 73.7452 55.571 73.7174 55.5339C73.6896 55.4968 73.6763 55.4509 73.68 55.4047C73.688 55.3002 73.7145 55.198 73.7583 55.1028C74.0466 54.7268 74.4337 54.4383 74.8765 54.2697C76.4645 53.6099 77.6722 54.2697 79.4894 54.3871C79.7174 55.421 80.0068 56.4404 80.356 57.4399C79.7988 57.6627 79.2587 57.9262 78.7401 58.2283H78.7178ZM80.8537 57.5462C80.658 56.8864 79.9311 54.4933 79.8584 53.9342C80.147 53.7932 80.4509 53.6862 80.7642 53.6155C81.0214 54.5716 81.4967 56.2322 81.8042 57.1604C81.5041 57.3104 81.194 57.4393 80.876 57.5462H80.8537ZM82.436 57.5462C82.1397 56.8752 81.2618 53.7497 81.0605 52.9669C82.0222 52.1785 90.6552 47.9347 91.9412 46.6431C92.3438 46.2405 90.9851 38.6643 92.5787 32.43C93.4285 29.0752 95.0947 23.8026 98.5334 23.92C100.893 23.9983 102.24 25.7987 103.006 28.0464C104.41 32.1839 103.851 37.9262 103.851 37.8703C103.851 42.5614 102.173 49.6121 98.8186 52.9669C96.2857 55.5053 84.0127 57.8313 82.4584 57.563L82.436 57.5462ZM105.489 61.7956C104.835 61.6222 101.832 60.5152 100.563 60.4089C93.9709 59.8498 94.3791 58.5973 90.303 56.8081C92.5395 56.249 97.5102 54.9518 99.1596 53.3191C102.643 49.8637 104.253 42.7404 104.237 37.9206C104.366 36.2327 104.366 34.5373 104.237 32.8493C105.472 39.8608 106.233 59.6709 105.489 61.7956Z" fill="black"/>
<path fill-rule="evenodd" clip-rule="evenodd" d="M19.036 23.9983L17.202 24.2107C17.7611 24.7365 18.2703 25.313 18.7229 25.9329L19.2317 24.2555C19.2472 24.2254 19.2539 24.1916 19.2509 24.1579C19.248 24.1241 19.2356 24.092 19.2151 24.065C19.1946 24.0381 19.1669 24.0176 19.1352 24.0057C19.1035 23.9939 19.0691 23.9913 19.036 23.9983ZM72.0752 75.0247C71.614 74.7327 71.1048 74.5245 70.5712 74.4096C71.8404 72.3464 71.6112 69.9366 71.2757 69.7241C70.9599 69.4023 70.5395 69.204 70.0903 69.165C68.4129 68.8127 64.348 68.7848 63.2745 69.6794C63.0397 69.8751 62.8999 70.1938 63.1291 70.4062C63.02 71.7316 63.2977 73.0601 63.9287 74.2307C63.3696 74.3369 62.721 74.5494 62.5085 75.0526C62.4718 75.1609 62.4619 75.2763 62.4794 75.3892C62.4969 75.5022 62.5414 75.6092 62.6091 75.7012C63.0384 76.2335 63.6258 76.6154 64.2865 76.7915C65.4535 77.1466 66.6779 77.2738 67.8929 77.1661C69.0538 77.1189 70.2047 76.9311 71.3204 76.607C72.5561 76.1485 72.5449 75.3937 72.0752 75.0247ZM63.3248 70.5069C64.5267 70.8352 65.7694 70.9895 67.0151 70.9654C68.3733 70.8724 69.7145 70.6094 71.0073 70.1826C71.1193 70.9518 71.0781 71.7355 70.8862 72.4888C70.6943 73.242 70.3554 73.9499 69.889 74.5718C69.7763 74.7693 69.6137 74.9336 69.4174 75.0485C69.2212 75.1633 68.9982 75.2245 68.7708 75.226C67.988 75.3266 65.8521 75.3825 65.416 75.1868C64.0014 74.5326 63.3025 72.1563 63.3248 70.5069ZM67.8706 76.6573C66.7164 76.7666 65.552 76.6489 64.4431 76.3107C63.941 76.1739 63.479 75.9189 63.0956 75.567C63.0061 75.472 62.8608 75.2819 62.9055 75.1645C63.0509 74.7954 63.761 74.6053 64.1523 74.5382C64.4325 74.9655 64.8175 75.314 65.2706 75.5503C65.8297 75.8354 68.9273 75.8019 69.5032 75.5055C69.8622 75.2864 70.1663 74.988 70.3923 74.6333C70.7221 74.7283 71.874 75.1197 71.9522 75.4328C72.2038 76.3945 68.877 76.6238 67.8706 76.6853V76.6573Z" fill="black"/>
</svg>
